# xmcd
#
# Track frame offsets:
#	150
#	8710
#	23962
#	37857
#	52505
#	66382
#	74305
#	87490
#	100797
#	112937
#	125802
#	149972
#	166652
#	185515
#	203845
#	219230
#	237937
#
# Disc length: 3400 seconds
#
# Revision: 0
# Processed by: cddbd v1.5.2PL0 Copyright (c) Steve Scherf et al.
# Submitted via: EasyCDDAExtractor 10.0.5.1
#
DISCID=e90d4611
DTITLE=The Blues Brothers - The Definitive Blues Brothers Collection (1 of 2)
DYEAR=1900
DGENRE=Blues
TTITLE0=I Cant Turn You Loose
TTITLE1=Everybody Needs Somebody To Love
TTITLE2=Gimme Some Lovin
TTITLE3=Think
TTITLE4=Soul Man
TTITLE5=Soul Finger
TTITLE6=Messin With The Kid
TTITLE7=Hey Bartender
TTITLE8=(I Got Everything I Need) Almost
TTITLE9=Rubber Biscuit
TTITLE10=Shotgun Blues
TTITLE11=Groove Me
TTITLE12=I Dont Know
TTITLE13=B Movie Box Car Blues
TTITLE14=Flip, Flop And Fly
TTITLE15=She Caught The Katy
TTITLE16=Peter Gunn Theme
EXTD=
EXTT0=
EXTT1=
EXTT2=
EXTT3=
EXTT4=
EXTT5=
EXTT6=
EXTT7=
EXTT8=
EXTT9=
EXTT10=
EXTT11=
EXTT12=
EXTT13=
EXTT14=
EXTT15=
EXTT16=
PLAYORDER=
